<svg xmlns="http://www.w3.org/2000/svg" viewBox="0 0 800 600" width="800" height="600" role="img" aria-hidden="true">
  <defs>
    <linearGradient id="fade" x1="0" y1="0" x2="0" y2="1">
      <stop offset="0%" stop-color="#4A7BA7" stop-opacity="0.18"/>
      <stop offset="100%" stop-color="#4A7BA7" stop-opacity="0"/>
    </linearGradient>
  </defs>
  <rect width="800" height="600" fill="#111827"/>
  <rect width="800" height="600" fill="url(#fade)"/>
  
<line x1="0" y1="0" x2="0" y2="600" stroke="rgba(255,255,255,0.045)" stroke-width="1"/>
<line x1="48" y1="0" x2="48" y2="600" stroke="rgba(255,255,255,0.045)" stroke-width="1"/>
<line x1="96" y1="0" x2="96" y2="600" stroke="rgba(255,255,255,0.045)" stroke-width="1"/>
<line x1="144" y1="0" x2="144" y2="600" stroke="rgba(255,255,255,0.045)" stroke-width="1"/>
<line x1="192" y1="0" x2="192" y2="600" stroke="rgba(255,255,255,0.045)" stroke-width="1"/>
<line x1="240" y1="0" x2="240" y2="600" stroke="rgba(255,255,255,0.045)" stroke-width="1"/>
<line x1="288" y1="0" x2="288" y2="600" stroke="rgba(255,255,255,0.045)" stroke-width="1"/>
<line x1="336" y1="0" x2="336" y2="600" stroke="rgba(255,255,255,0.045)" stroke-width="1"/>
<line x1="384" y1="0" x2="384" y2="600" stroke="rgba(255,255,255,0.045)" stroke-width="1"/>
<line x1="432" y1="0" x2="432" y2="600" stroke="rgba(255,255,255,0.045)" stroke-width="1"/>
<line x1="480" y1="0" x2="480" y2="600" stroke="rgba(255,255,255,0.045)" stroke-width="1"/>
<line x1="528" y1="0" x2="528" y2="600" stroke="rgba(255,255,255,0.045)" stroke-width="1"/>
<line x1="576" y1="0" x2="576" y2="600" stroke="rgba(255,255,255,0.045)" stroke-width="1"/>
<line x1="624" y1="0" x2="624" y2="600" stroke="rgba(255,255,255,0.045)" stroke-width="1"/>
<line x1="672" y1="0" x2="672" y2="600" stroke="rgba(255,255,255,0.045)" stroke-width="1"/>
<line x1="720" y1="0" x2="720" y2="600" stroke="rgba(255,255,255,0.045)" stroke-width="1"/>
<line x1="768" y1="0" x2="768" y2="600" stroke="rgba(255,255,255,0.045)" stroke-width="1"/>
<line x1="0" y1="0" x2="800" y2="0" stroke="rgba(255,255,255,0.045)" stroke-width="1"/>
<line x1="0" y1="48" x2="800" y2="48" stroke="rgba(255,255,255,0.045)" stroke-width="1"/>
<line x1="0" y1="96" x2="800" y2="96" stroke="rgba(255,255,255,0.045)" stroke-width="1"/>
<line x1="0" y1="144" x2="800" y2="144" stroke="rgba(255,255,255,0.045)" stroke-width="1"/>
<line x1="0" y1="192" x2="800" y2="192" stroke="rgba(255,255,255,0.045)" stroke-width="1"/>
<line x1="0" y1="240" x2="800" y2="240" stroke="rgba(255,255,255,0.045)" stroke-width="1"/>
<line x1="0" y1="288" x2="800" y2="288" stroke="rgba(255,255,255,0.045)" stroke-width="1"/>
<line x1="0" y1="336" x2="800" y2="336" stroke="rgba(255,255,255,0.045)" stroke-width="1"/>
<line x1="0" y1="384" x2="800" y2="384" stroke="rgba(255,255,255,0.045)" stroke-width="1"/>
<line x1="0" y1="432" x2="800" y2="432" stroke="rgba(255,255,255,0.045)" stroke-width="1"/>
<line x1="0" y1="480" x2="800" y2="480" stroke="rgba(255,255,255,0.045)" stroke-width="1"/>
<line x1="0" y1="528" x2="800" y2="528" stroke="rgba(255,255,255,0.045)" stroke-width="1"/>
<line x1="0" y1="576" x2="800" y2="576" stroke="rgba(255,255,255,0.045)" stroke-width="1"/>
<path d="M 100 500 L 260 500 L 260 340 L 420 340 L 420 200 L 600 200" fill="none" stroke="#6B98C4" stroke-width="3" stroke-linecap="round" stroke-linejoin="round" stroke-dasharray="4 10"/>
<rect x="84" y="484" width="32" height="32" rx="8" fill="#4A7BA7"/>
<rect x="584" y="184" width="32" height="32" rx="8" fill="#6B98C4"/>
<circle cx="260" cy="340" r="7" fill="#94A3B8"/>
<circle cx="420" cy="340" r="7" fill="#94A3B8"/>
<rect x="480" y="420" width="220" height="110" rx="14" fill="#1A2233" stroke="rgba(255,255,255,0.08)"/>
<rect x="504" y="444" width="90" height="10" rx="5" fill="#94A3B8" opacity="0.5"/>
<rect x="504" y="468" width="150" height="10" rx="5" fill="#94A3B8" opacity="0.35"/>
<rect x="504" y="492" width="110" height="10" rx="5" fill="#94A3B8" opacity="0.35"/>

</svg>